<svg width="117" height="153" viewBox="0 0 117 153" fill="none" xmlns="http://www.w3.org/2000/svg">
<path d="M22.0595 37.2891C20.902 38.8095 19.7297 40.3178 18.5901 41.8531C16.602 44.5315 14.6526 47.2422 12.6454 49.9044C12.1024 50.6246 11.4667 51.2971 10.7762 51.8586C7.33384 54.6581 3.28115 53.5929 2.05018 49.22C-0.337787 40.737 0.65827 32.6831 5.85994 25.5015C7.46246 23.2889 9.64028 22.0375 12.3762 22.0197C15.4491 21.9997 16.949 23.6822 16.2198 26.8206C15.6517 29.2654 14.8177 31.6793 13.8125 33.9656C11.8898 38.3385 9.75911 42.6096 7.7204 46.9259C7.48655 47.421 7.23183 47.9175 7.08504 48.4437C6.65498 49.9854 7.51491 51.0203 8.92367 50.4141C10.1161 49.901 11.3932 49.0744 12.1231 48.0014C14.101 45.0937 15.7473 41.9383 17.6425 38.9643C19.0106 36.8174 20.5211 34.7646 22.0656 32.753C22.5604 32.1086 23.3053 31.5556 24.0435 31.266C25.6082 30.6523 27.5392 30.1391 28.6452 31.6022C29.3307 32.5092 29.3262 34.4718 28.936 35.7189C27.6344 39.8787 25.7851 43.8565 24.609 48.0484C23.865 50.7001 23.5378 53.6447 23.7547 56.394C24.0611 60.2801 26.724 62.3958 30.4394 62.7168C33.7861 63.006 36.7154 61.8555 39.3785 59.9278C48.369 53.4202 55.587 45.1363 61.1977 35.299C61.8839 34.0958 62.4197 32.7451 62.7624 31.389C63.2619 29.413 62.3431 28.3826 60.5199 29.025C58.6023 29.7006 56.7028 30.6262 55.0182 31.7983C52.4772 33.5664 50.1437 35.6632 47.6945 37.5813C46.2583 38.7061 44.6814 39.8345 42.867 38.7545C41.0437 37.6692 41.1491 35.6316 41.3402 33.7748C41.7905 29.4002 43.5927 26.0933 47.8108 24.5337C51.1606 23.2952 54.5287 22.737 58.0101 23.4699C63.6653 24.6605 65.9896 28.9516 63.9505 34.6357C62.4581 38.7956 60.7329 42.8644 59.0563 46.9487C57.8027 50.0027 57.9225 52.9602 59.408 55.8675C60.1312 57.2828 60.9088 58.6672 61.6431 60.0765C64.951 66.4251 65.0173 72.6963 61.1797 78.8427C55.783 87.4861 48.2387 93.2523 39.104 96.7164C30.877 99.8363 22.492 100.417 14.0637 97.5278C10.5477 96.3223 7.41138 94.4052 4.99284 91.3869C1.65689 87.2238 1.27427 82.5895 3.20613 77.661C5.08689 72.8629 8.7149 70.5738 13.441 70.1044C18.0251 69.6492 21.9807 71.347 25.3741 74.5231C27.0428 76.0851 28.178 78.0166 28.3252 80.4479C28.4857 83.0982 27.3985 84.7892 24.9804 85.6361C21.9172 86.7088 18.9773 86.0123 16.028 85.003C15.2246 84.7281 13.8856 84.5003 13.5079 84.9375C12.9629 85.5682 12.7603 86.9018 12.9581 87.8021C13.5945 90.6982 15.216 93.0448 18.0794 93.5732C30.7147 95.9048 42.3238 93.5763 51.9093 84.0693C55.8398 80.171 57.5725 75.0232 56.9509 69.219C56.5681 65.6442 54.5306 63.2734 51.6404 61.6405C50.3275 60.8988 49.0869 61.1033 48.2997 62.5463C43.333 71.6506 35.5004 73.6336 26.3843 72.3033C24.7781 72.0689 23.1719 71.5445 21.6647 70.8978C15.9369 68.4402 13.5094 63.9818 15.1778 57.7174C16.5971 52.3884 18.7822 47.2848 20.6565 42.0926C21.2101 40.5589 21.8586 39.0633 22.4636 37.5503C22.3289 37.4632 22.1942 37.3761 22.0595 37.2891Z" fill="black"/>
<path d="M78.0959 152.715C64.7828 152.089 56.0915 146.208 50.9814 134.822C43.9376 119.127 47.4511 98.6428 59.3376 86.6138C66.3225 79.5451 74.7921 76.5213 84.5103 77.8795C90.1206 78.6636 93.2115 82.5395 95.206 87.7087C95.8024 89.2542 96.3027 90.8422 96.93 92.3729C98.3494 95.8367 99.7345 96.1644 102.51 93.8181C103.468 93.0082 104.444 92.1891 105.51 91.5607C110.298 88.74 114.798 90.9589 115.876 96.6169C117.087 102.972 113.933 110.715 108.716 114.192C103.959 117.362 100.321 116.518 98.1876 111.075C96.3184 106.306 95.1958 101.211 93.7531 96.2567C92.8245 93.0681 92.0792 89.8077 90.9605 86.6958C88.4946 79.8363 83.496 77.0731 76.7861 79.1344C68.4388 81.6987 62.2026 87.2421 58.948 95.7546C54.9877 106.113 53.4663 116.962 55.0638 128.121C55.7441 132.873 57.5451 137.156 60.7959 140.612C65.0048 145.086 71.6318 146.112 77.8432 143.3C83.3295 140.816 87.7048 136.836 91.0724 131.709C92.0691 130.191 92.6429 128.248 92.9769 126.412C93.1521 125.448 92.6712 123.85 91.9689 123.356C91.3002 122.886 89.6994 123.102 88.9566 123.669C85.4911 126.314 82.1811 129.185 78.815 131.974C78.0312 132.623 77.2889 133.346 76.4421 133.886C76.0042 134.166 75.379 134.119 74.8385 134.22C74.8036 133.702 74.6258 133.139 74.759 132.675C75.3019 130.783 76.0168 128.945 76.519 127.044C76.9299 125.487 77.8814 123.665 76.4117 122.353C74.9685 121.064 73.3905 122.218 71.9823 122.918C70.1284 123.838 68.3745 125.002 66.4818 125.813C64.298 126.748 63.1936 126.003 63.0097 123.553C62.662 118.92 64.7165 115.295 67.7207 112.219C70.2838 109.596 73.3246 107.943 77.0346 108.094C81.4208 108.272 84.472 113.066 82.8354 117.372C82.1415 119.197 81.0362 120.846 80.3023 122.658C80.0118 123.376 80.2227 124.319 80.2053 125.159C81.109 124.959 82.3269 125.073 82.8499 124.492C83.8723 123.357 84.5732 121.87 85.2873 120.462C86.5836 117.905 87.6246 115.187 89.0875 112.746C90.381 110.588 92.327 110.46 93.7031 112.538C98.1913 119.313 101.587 126.608 100.052 135.189C98.5959 143.334 93.3271 148.182 86.2199 150.832C83.2241 151.949 79.9706 152.298 78.0959 152.715Z" fill="black"/>
<path d="M95.9853 7.41936C96.9912 7.60703 98.0037 7.76306 99.0017 7.98983C100.488 8.32769 101.169 9.30798 100.601 10.8433C99.4532 13.9445 98.2005 17.0024 96.9846 20.0753C96.2632 21.8983 95.3807 23.6676 94.8318 25.5458C93.6881 29.4592 95.1984 31.2522 99.0226 30.7493C101.463 30.4283 103.922 29.8061 106.345 29.9293C108.308 30.0291 110.416 30.6947 112.128 31.7233C114.928 33.4054 115.551 36.886 113.576 39.5654C112.163 41.4841 110.345 43.1242 108.523 44.6421C106.644 46.2074 104.537 47.4667 102.539 48.8765C101.957 49.2878 101.306 49.6668 100.877 50.2238C100.472 50.7503 99.9976 51.5906 100.143 52.1097C100.287 52.6258 101.125 53.1387 101.73 53.2589C103.452 53.6015 105.231 53.6353 106.95 53.989C109.693 54.5529 110.59 56.0139 109.695 58.7823C107.297 66.1981 102.258 71.0676 95.4416 73.6386C76.6648 80.7212 61.9191 63.163 63.2206 47.3523C63.9325 38.7044 69.7329 32.8236 77.5894 32.8871C83.5445 32.9353 87.0241 37.9241 85.0411 43.8682C84.3155 46.043 83.1239 48.0937 81.8936 50.0231C79.0784 54.4383 76.0396 58.7077 75.0501 64.0982C74.271 68.3427 76.0069 71.634 80.0254 72.4333C82.2956 72.8849 84.8573 72.7234 87.1011 72.0962C91.772 70.7906 95.6716 67.8267 99.2207 64.4464C100.23 63.4848 100.91 62.0863 101.579 60.7948C102.27 59.4619 101.741 58.4941 100.365 58.1759C98.8773 57.832 97.3296 57.7381 95.8738 57.2957C94.546 56.8921 93.211 56.3245 92.0524 55.5438C90.7409 54.66 90.6813 53.4884 91.9608 52.5425C93.5277 51.3843 95.2544 50.4067 97.0196 49.6186C100.664 47.9917 103.869 45.8133 106.146 42.3348C106.707 41.4776 107.209 40.5402 107.547 39.566C108.277 37.4673 108.627 35.2703 107.075 33.4226C105.504 31.5512 103.27 31.038 101.111 31.5931C99.2268 32.0774 97.484 33.2124 95.7156 34.138C95.0416 34.4907 94.4903 35.0942 93.8476 35.5246C92.3677 36.5158 91.5143 36.2186 91.5825 34.3847C91.7034 31.1344 92.0011 27.8515 92.6336 24.6726C93.3534 21.0551 94.5228 17.537 95.4916 13.9742C95.6044 13.5591 95.8053 13.116 95.7516 12.7179C95.6692 12.1071 95.4011 11.5241 95.2118 10.9294C94.6795 11.1957 93.9122 11.3107 93.655 11.7542C92.4032 13.9126 91.3215 16.1794 90.1177 18.3701C87.1039 23.855 81.0932 25.7931 75.6776 23.0623C71.1683 20.7885 69.8284 16.0572 72.5492 11.6172C75.0971 7.45931 78.7622 4.70536 83.1747 3.19146C90.4502 0.695381 97.9248 0.429059 105.446 1.58054C108.211 2.00392 110.762 3.1571 112.836 5.22201C115.963 8.33508 115.436 12.2631 111.458 13.9093C109.439 14.7449 107.143 15.1069 104.961 15.1605C102.576 15.2191 101.812 13.6952 102.586 11.2922C102.775 10.7071 103.014 10.132 103.131 9.53085C103.555 7.35101 102.32 5.56051 100.225 5.67871C98.7607 5.76138 97.3226 6.36961 95.8725 6.74311L95.9853 7.41936Z" fill="black"/>
<path d="M45.4935 105.712C45.4701 109.004 43.143 111.484 40.078 111.484C36.9787 111.484 34.4881 108.833 34.5439 105.592C34.598 102.451 37.1439 99.8402 40.1074 99.8873C43.1571 99.9358 45.5164 102.487 45.4935 105.712Z" fill="black"/>
<path d="M68.191 15.9485C68.2249 19.2477 65.9437 21.7945 62.8982 21.8573C59.8041 21.9211 57.2741 19.3317 57.254 16.0807C57.2346 12.9287 59.6783 10.3235 62.6935 10.2818C65.7674 10.2393 68.1576 12.7031 68.191 15.9485Z" fill="black"/>
<path d="M101.362 87.126C98.3074 86.9927 95.9663 84.3796 96.0449 81.1914C96.1237 77.9957 98.7444 75.4785 101.868 75.5978C104.853 75.7118 107.229 78.4782 107.051 81.6306C106.866 84.9054 104.428 87.2599 101.362 87.126Z" fill="black"/>
</svg>
