<svg width="142" height="153" viewBox="0 0 142 153" fill="none" xmlns="http://www.w3.org/2000/svg">
<path d="M81.7295 40.1968C81.3201 42.8907 81.0046 45.5935 81.0988 48.3345C81.1602 50.12 81.1646 51.9077 81.1968 53.6944C81.2042 54.1068 81.2047 54.5202 81.2349 54.9309C81.4385 57.6954 81.7668 60.4399 82.2569 63.1682C82.9152 66.8332 84.2267 70.1297 86.7477 72.8268C87.4158 73.5415 88.1448 74.1309 89.0282 74.5005C89.4923 74.6946 89.9816 74.831 90.4272 75.0626C91.3737 75.5545 92.3676 75.7418 93.4026 75.617C94.5662 75.4766 95.7271 75.3009 96.8813 75.0926C97.3239 75.0128 97.7741 74.8588 98.1702 74.6377C99.3271 73.9917 100.405 73.2236 101.274 72.166C102.301 70.9158 103.29 69.6293 104.034 68.1724C105.114 66.0557 106.167 63.9207 107.156 61.7549C108.647 58.4868 109.793 55.078 110.691 51.5767C111.258 49.3633 111.779 47.1315 111.991 44.8521C112.266 41.8906 112.404 38.9148 112.602 35.9452C112.552 32.9805 112.441 30.0286 112.174 27.0838C112.056 25.7848 111.871 24.4905 111.802 23.1891C111.72 21.6236 111.508 20.0883 111.065 18.5953C110.145 15.5001 108.593 12.8382 106.097 10.8777C103.958 9.19785 101.569 8.37922 98.8757 8.78023C96.7294 9.09979 94.933 10.1446 93.4069 11.7394C93.16 11.9974 92.9386 12.2852 92.6769 12.5246C90.9627 14.0928 89.6513 16.0041 88.5281 18.0538C86.4991 21.7562 84.8904 25.6492 83.8017 29.7821C82.8987 33.2099 82.2623 36.6911 81.7295 40.1968ZM96.0139 31.5366C96.2878 31.0345 96.7144 30.6012 97.1384 30.2193C97.7525 29.6659 98.6127 29.7114 99.2235 30.2621C100.014 30.9749 100.3 31.9209 100.218 32.9741C100.129 34.1278 99.7793 35.1979 99.2091 36.2058C98.7042 37.0984 98.1449 37.931 97.4326 38.6473C97.2601 38.8207 97.0808 38.991 96.8863 39.1352C95.9864 39.8021 95.0334 39.4157 94.816 38.273C94.7055 37.692 94.6765 37.0938 94.6371 36.7399C94.7034 34.7226 95.1804 33.0646 96.0139 31.5366Z" fill="#FFCC33"/>
<path d="M23.3792 27.6501C24.1704 28.6837 24.9717 29.7088 25.7794 30.728C27.1064 32.4023 28.2865 34.1862 29.3411 36.0603C30.4687 38.064 31.0957 40.2455 31.2887 42.5608C31.3895 43.7701 31.484 44.9836 31.5015 46.1965C31.5542 49.8395 31.6009 53.4833 31.5784 57.1264C31.5705 58.402 31.4189 59.6875 31.2179 60.9482C30.9481 62.6402 30.5827 64.3163 30.2283 65.9922C29.9147 67.4756 29.7397 68.9664 29.789 70.4896C29.8368 71.9665 30.2289 73.3294 30.9176 74.6042C31.2808 75.2766 31.7819 75.8302 32.4407 76.1635C33.0831 76.4884 33.7475 76.8295 34.4379 76.9729C37.0554 77.5163 39.6551 77.4947 42.2073 76.5209C45.1066 75.4146 47.2625 73.3637 48.9562 70.7152C49.3689 70.07 49.7305 69.3883 50.112 68.721C51.3904 66.4852 52.3448 64.114 52.8118 61.5388C52.9709 60.6612 53.1363 59.7847 53.3039 58.9088C53.5844 57.4426 53.7067 55.9621 53.6723 54.177C53.7668 52.078 53.3347 49.7682 52.7022 47.4927C52.3101 46.0821 51.8581 44.6984 50.9786 43.5155C50.6215 43.0354 50.2033 42.6507 49.6973 42.369C49.0709 42.0203 48.453 42.0291 47.8395 42.4261C47.3463 42.7454 46.9193 43.1457 46.6697 43.6894C46.2921 44.5117 45.9346 45.3491 45.6383 46.2069C45.0189 48.0004 44.3148 49.744 43.2867 51.3279C42.9127 51.904 42.4698 52.4004 41.9125 52.7748C41.4128 53.1105 41.0505 52.961 41.0074 52.3379C40.9718 51.8227 41.0166 51.2791 41.1396 50.7792C41.3079 50.0952 41.5802 49.4391 41.8146 48.7737C42.2534 47.5287 42.7603 46.3057 43.1239 45.0369C43.6777 43.1041 43.8136 41.1035 43.4655 39.1188C43.1314 37.2141 42.4017 35.4726 40.8994 34.2371C40.3553 33.7897 39.7184 33.4685 39.1289 33.081C38.8347 32.8877 38.5252 32.7063 38.2697 32.4644C37.7227 31.9467 37.6334 31.1454 38.0795 30.5393C38.5034 29.9634 39.067 29.5844 39.7803 29.5013C40.7643 29.3866 41.4758 29.8298 41.9254 30.7211C42.2101 31.2852 42.4163 31.8931 42.6624 32.4792C43.531 34.5479 45.9361 35.0831 47.4748 33.5109C48.5728 32.3889 49.5168 31.129 50.105 29.6162C50.3687 28.9379 50.6273 28.2564 50.8583 27.5652C52.3011 23.2488 52.7035 18.8694 51.5895 14.3907C50.9938 11.9957 49.9392 9.92461 48.0389 8.38398C46.1239 6.83136 43.9702 5.99323 41.5611 6.07143C39.8417 6.12724 38.1498 6.49834 36.5142 7.08286C34.7577 7.71057 33.1098 8.58534 31.5065 9.56481C29.5769 10.7437 27.7832 12.1184 26.2392 13.8084C24.3032 15.9275 23.0585 18.4911 22.2824 21.2988C22.0096 22.2854 21.8846 23.315 22.0095 24.3584C22.1581 25.6007 22.6414 26.6861 23.3792 27.6501Z" fill="#FFCC33"/>
<path d="M58.8938 135.66C57.9769 133.919 57.0398 132.189 56.1132 130.453C55.8367 129.935 55.5564 129.419 55.2988 128.89C54.7726 127.811 54.2916 126.705 53.7363 125.643C52.4769 123.234 51.2294 120.825 50.3435 118.222C49.7976 116.617 49.2574 114.996 49.1729 113.307C49.0678 111.208 49.0614 109.082 49.257 106.993C49.6339 102.969 50.5877 99.1049 52.7688 95.6823C54.1345 93.5393 55.094 91.1837 56.0061 88.8009C57.2304 85.6021 56.4097 81.1895 53.4018 78.767C52.1845 77.7866 50.9208 76.8907 49.3159 76.7989C48.7301 76.7654 48.1433 76.748 47.5568 76.7318C46.8033 76.711 46.1039 76.9318 45.4085 77.2242C44.1529 77.7522 43.1925 78.7018 42.3533 79.7419C40.8874 81.559 39.5769 83.5106 38.6032 85.6781C36.9226 89.4188 35.6615 93.3241 34.7307 97.3374C34.0599 100.229 33.5349 103.159 32.9464 106.072C32.118 110.172 31.2065 114.254 30.6131 118.406C30.1753 121.469 29.8557 124.539 29.7578 127.811C29.7963 128.53 29.8448 129.422 29.8915 130.314C30.0553 133.437 30.735 136.419 31.9885 139.265C33.1043 141.798 34.9115 143.566 37.2832 144.711C38.4132 145.257 39.6168 145.414 40.8532 145.112C41.7114 144.903 42.2734 144.374 42.5553 143.491C42.8238 142.65 42.9318 141.784 42.829 140.914C42.6222 139.165 42.4259 137.41 42.1017 135.683C41.8494 134.339 41.4108 133.034 41.053 131.712C40.6988 130.404 40.5195 129.066 40.5101 127.71C40.5067 127.215 40.5901 126.701 40.7287 126.227C40.8848 125.693 41.3001 125.589 41.6929 125.959C41.9306 126.183 42.136 126.468 42.2908 126.763C42.7259 127.593 43.006 128.486 43.0932 129.432C43.1899 130.481 43.2292 131.536 43.3446 132.582C43.5579 134.515 43.7087 136.465 44.0748 138.367C44.3711 139.906 44.9402 141.388 45.3974 142.892C45.8474 144.372 46.5775 145.687 47.4954 146.901C48.8251 148.661 50.5133 149.838 52.5436 150.5C53.6711 150.867 54.8264 151.051 55.9968 151.181C57.432 151.34 58.6864 150.958 59.6473 149.81C60.8365 148.388 61.458 146.702 61.5303 144.801C61.6242 142.334 61.0199 140.04 59.9683 137.859C59.6138 137.124 59.2732 136.381 58.8938 135.66ZM42.5589 111.729C42.4436 112.296 42.2104 112.872 41.8988 113.349C41.4328 114.062 40.5857 114.05 40.0637 113.379C39.8478 113.102 39.6746 112.768 39.5533 112.431C39.1144 111.214 38.9195 109.954 39.1415 108.659C39.3071 107.692 39.4877 106.725 39.7221 105.775C39.8461 105.273 40.0722 104.79 40.3048 104.328C40.4318 104.076 40.6412 103.846 40.8623 103.676C41.217 103.404 41.4944 103.473 41.7586 103.84C41.8496 103.966 41.9393 104.106 41.9829 104.255C42.4307 105.783 42.9707 107.293 42.9166 108.947C42.8039 109.876 42.7445 110.817 42.5589 111.729Z" fill="#FFCC33"/>
<path d="M95.58 138.034C94.688 136.91 93.8641 135.712 92.8777 134.688C91.6733 133.437 90.6382 132.069 89.7368 130.577C88.5551 128.621 87.4488 126.652 87.1134 124.276C86.7603 121.776 86.881 119.433 88.3974 117.346C88.4105 117.328 88.4195 117.306 88.4314 117.287C90.4623 114.017 91.7812 110.412 92.9055 106.717C93.4257 105.007 93.695 103.239 93.847 101.46C94.0736 98.8067 93.4673 96.3169 92.2836 93.9852C92.0868 93.5974 91.7422 93.2712 91.4127 92.9845C90.737 92.3968 89.9233 92.1819 89.0598 92.0935C88.2694 92.0126 87.6295 92.2708 87.0185 92.7893C85.6768 93.9277 85.03 95.4407 84.8684 97.1882C84.7358 98.622 84.7149 100.067 84.6445 101.507C84.6695 101.509 84.6946 101.51 84.7196 101.511C84.7196 102.244 84.7115 102.978 84.7214 103.711C84.7386 104.978 84.6004 106.229 84.3287 107.459C84.2164 107.968 84.0533 108.475 83.8389 108.945C83.5896 109.491 82.9621 109.802 82.4138 109.68C82.2326 109.64 81.9785 109.463 81.9385 109.299C81.6839 108.259 81.4198 107.212 81.5524 106.119C81.6983 104.915 81.866 103.714 81.9967 102.508C82.1871 100.75 82.5405 99.0423 83.0694 97.3556C83.9004 94.7054 84.6909 92.0426 85.068 89.2566C85.6407 85.0253 83.1792 80.7372 78.9672 79.2269C76.8201 78.457 74.6329 78.6695 72.4815 79.3163C71.435 79.6309 70.4927 80.1651 69.8572 81.1286C69.0598 82.3377 68.58 83.6558 68.6278 85.1768C68.6773 86.7504 68.9365 88.2649 69.4084 89.7568C70.1161 91.9942 70.7298 94.267 71.8424 96.3378C72.11 96.8359 72.3859 97.3335 72.6021 97.8569C73.897 100.991 75.0496 104.173 75.489 107.591C75.5471 108.043 75.6808 108.485 75.7715 108.933C75.8486 109.313 75.925 109.694 75.9829 110.077C76.1845 111.412 76.3911 112.746 76.5673 114.084C76.6296 114.557 76.6273 115.042 76.6239 115.521C76.6197 116.115 76.5776 116.709 76.5627 117.303C76.5151 119.204 76.5084 121.113 76.0975 122.975C75.7827 124.402 75.4326 125.825 75.0046 127.217C74.564 128.651 74.1558 130.103 73.3812 131.405C72.6524 132.63 71.9061 133.834 71.0104 134.934C69.5525 136.726 68.1765 138.597 66.5293 140.204C65.519 141.191 64.6178 142.266 63.7868 143.419C63.0046 144.504 62.49 145.715 62.3362 147.051C62.1476 148.691 62.5476 150.292 64.1015 151.143C66.5359 152.476 69.1095 152.727 71.7058 151.996C73.7138 151.43 75.5151 150.331 77.0238 148.77C77.5722 148.203 78.0136 147.564 78.3635 146.839C79.4674 144.551 80.024 142.122 80.0974 139.566C80.1697 137.048 80.2159 134.528 80.2864 132.009C80.3227 130.71 80.586 129.462 81.1713 128.31C81.321 128.016 81.5295 127.725 81.7775 127.522C82.2329 127.15 82.7212 127.28 82.9591 127.829C83.1193 128.199 83.2261 128.606 83.2896 129.009C83.504 130.369 83.6117 131.744 83.5125 133.118C83.3181 135.813 83.3066 138.523 82.8726 141.197C82.7628 141.873 82.7492 142.573 82.5831 143.232C82.0559 145.322 82.3352 147.282 83.3853 149.113C83.624 149.529 83.9985 149.886 84.3736 150.182C85.3748 150.971 86.552 151.13 87.7324 150.908C89.4189 150.59 91.101 150.21 92.647 149.368C92.9358 149.211 93.2403 149.082 93.5459 148.963C94.348 148.653 94.9959 148.117 95.4917 147.403C97.0682 145.132 97.9576 141.557 95.876 138.486C95.7749 138.337 95.691 138.174 95.58 138.034Z" fill="#FFCC33"/>
<path d="M140.971 60.4272C140.83 59.0586 140.378 57.7932 139.487 56.7556C138.425 55.5187 137.111 54.9988 135.547 55.4212C134.022 55.8328 132.911 56.786 132.328 58.3574C131.635 60.2256 131.225 62.1592 131.069 64.1617C130.93 65.941 130.745 67.7168 130.548 69.4903C130.336 71.4024 129.364 72.9023 128.124 74.238C127.929 74.4488 127.701 74.6354 127.464 74.7936C126.564 75.395 125.41 75.3672 124.574 74.7431C123.787 74.156 123.414 73.0189 123.692 71.9216C124.011 70.6674 124.513 69.505 125.404 68.5729C125.929 68.0242 126.487 67.5102 126.991 66.9416C127.328 66.5606 127.693 66.1531 127.876 65.684C128.319 64.5426 128.71 63.3724 129.035 62.1875C129.336 61.0913 128.738 59.8025 127.777 59.2819C126.542 58.613 124.27 58.5085 122.887 60.2451C122.048 61.2998 121.6 62.5039 121.524 63.8818C121.492 64.4716 121.429 65.0787 121.259 65.6373C120.754 67.2989 119.803 68.5954 118.262 69.3349C117.485 69.7078 116.731 69.5378 116.23 68.8217C115.981 68.4657 115.77 68.0238 115.704 67.5931C115.538 66.5177 115.641 65.4407 115.992 64.4097C116.685 62.3715 117.682 60.5098 118.833 58.7115C121.146 55.0953 123.917 51.8528 126.327 48.315C127.506 46.5836 128.475 44.7746 129.122 42.7618C129.486 41.6284 129.803 40.4896 129.851 39.2796C129.82 38.869 129.802 38.457 129.758 38.0481C129.591 36.5093 129.149 35.0952 128.064 33.9801C127.582 33.4845 127.133 32.9448 126.606 32.5091C125.909 31.9333 125.202 31.3364 124.25 31.2762C123.425 31.2241 122.614 31.1851 121.788 31.387C120.885 31.608 120.042 31.955 119.255 32.4449C117.264 33.6842 115.782 35.3855 115.001 37.7211C114.317 39.7693 113.982 41.8825 113.839 44.0407C113.606 47.5423 113.129 50.9959 112.27 54.4017C111.045 59.2536 109.143 63.7709 106.545 67.963C105.882 69.0327 105.092 70.0178 104.329 71.0155C103.607 71.9605 102.836 72.864 102.101 73.7986C101.185 74.9638 100.617 76.325 100.171 77.7455C99.8422 78.7934 99.9502 80.2045 101.187 81.0869C102.371 81.932 103.655 82.4204 105.106 82.33C106.738 82.2284 108.264 81.7841 109.684 80.8992C110.674 80.2821 111.711 79.7485 112.732 79.186C113.302 78.8716 113.912 78.7348 114.558 78.7814C115.627 78.8583 116.161 79.6417 115.845 80.7322C115.718 81.1668 115.519 81.5806 115.327 81.9903C115.038 82.6062 114.703 83.1987 114.431 83.8219C114.063 84.6608 113.83 85.5376 113.898 86.4806C113.981 87.6176 114.52 88.5229 115.232 89.3173C115.505 89.6224 115.865 89.91 116.237 90.0372C117.714 90.5421 119.216 90.8749 120.784 90.495C122.191 90.154 123.575 89.7776 124.655 88.6676C125.613 87.6827 126.458 86.6003 126.983 85.2993C127.423 84.2067 127.806 83.0812 128.127 81.9431C129.08 78.5692 131.284 76.2088 133.773 74.0697C133.99 73.8836 134.244 73.7343 134.5 73.6129C135.639 73.0727 136.634 72.2934 137.65 71.5458C138.824 70.6809 139.692 69.5424 140.193 68.1396C140.497 67.2892 140.714 66.3907 140.857 65.4939C140.989 64.6631 140.994 63.8064 141.012 62.96C141.031 62.1159 141.058 61.2634 140.971 60.4272Z" fill="#FFCC33"/>
<path d="M113.718 122.332C113.11 122.008 112.491 121.931 111.824 122.128C110.117 122.632 108.475 123.266 107.082 124.476C106.663 124.84 106.226 125.184 105.771 125.497C105.263 125.847 104.754 126.226 104.195 126.454C103.596 126.697 102.945 126.856 102.305 126.912C101.483 126.983 100.933 126.458 100.544 125.729C100.182 125.05 100.54 124.549 100.902 124.048C101.02 123.884 101.155 123.733 101.287 123.582C102.172 122.573 103.22 121.814 104.429 121.3C105.034 121.043 105.646 120.802 106.231 120.502C107.551 119.826 108.688 118.924 109.29 117.451C109.806 116.19 110.021 114.864 109.926 113.493C109.882 112.864 109.721 112.244 109.273 111.809C108.314 110.876 107.212 110.282 105.849 110.476C105.526 110.523 105.209 110.614 104.885 110.648C104.281 110.713 103.67 110.827 103.071 110.787C101.487 110.681 100.315 109.495 100.137 107.829C100.065 107.153 100.073 106.458 100.126 105.778C100.232 104.429 100.902 103.681 102.192 103.559C102.963 103.487 103.753 103.552 104.527 103.634C105.618 103.748 106.631 104.189 107.644 104.602C108.659 105.015 109.707 105.155 110.782 105.067C111.645 104.996 112.461 104.717 113.111 104.103C114.62 102.679 115.71 101.014 116.034 98.8196C116.336 96.7782 116.017 94.9056 115.101 93.1133C114.936 92.7906 114.769 92.4691 114.605 92.1462C112.834 88.6712 110.101 86.3333 106.743 84.718C105.53 84.1347 104.257 83.999 102.977 84.1909C100.189 84.6089 97.9721 86.0725 96.3723 88.5207C95.5886 89.72 95.089 91.0611 94.7545 92.4757C94.5412 93.378 94.47 94.2741 94.6142 95.1956C94.9183 97.1383 95.1423 99.0874 95.1967 101.062C95.2777 104 95.2113 106.924 94.7572 109.83C94.4816 111.594 94.1342 113.339 93.5718 115.031C93.2413 116.025 92.8974 117.015 92.5971 118.019C91.889 120.387 91.3434 122.788 91.3359 125.299C91.4019 126.165 91.4383 127.036 91.5434 127.898C91.6236 128.554 91.7709 129.204 91.9228 129.848C92.7589 133.392 94.4786 136.353 97.2692 138.546C98.346 139.393 99.5261 140.097 100.681 140.828C101.007 141.035 101.403 141.139 101.78 141.235C102.222 141.349 102.678 141.408 103.129 141.481C104.434 141.693 105.74 141.704 107 141.253C109.377 140.403 111.598 139.283 113.075 136.994C113.16 136.862 113.264 136.744 113.361 136.62C114.005 135.795 114.469 134.871 114.755 133.845C114.964 133.098 115.143 132.338 115.412 131.616C115.902 130.3 116.167 128.939 116.262 127.538C116.349 126.243 116.315 124.982 115.529 123.861C115.045 123.17 114.425 122.708 113.718 122.332Z" fill="#FFCC33"/>
<path d="M29.5837 96.9845C30.4645 96.3962 31.3518 95.818 32.2461 95.2529C33.405 94.5206 34.3298 93.5633 35.0601 92.3521C35.7024 91.2867 35.9193 90.1247 36.0875 88.9161C36.1924 88.1624 36.1125 87.4563 35.8521 86.7631C35.6364 86.1887 35.4108 85.6178 35.1706 85.0544C35.0196 84.7003 34.8764 84.3284 34.6559 84.0239C33.7845 82.8206 32.6862 82.0281 31.1787 82.0892C29.9211 82.1402 28.7346 82.4632 27.6434 83.1496C26.0845 84.1302 24.3899 84.7782 22.6704 85.3599C22.0201 85.5799 21.3546 85.6485 20.6735 85.5575C18.58 85.2779 16.5114 84.8575 14.5086 84.1581C13.2122 83.7053 11.8844 83.6022 10.5812 83.8177C9.39447 84.014 8.29109 84.5148 7.32597 85.406C6.01916 86.6128 5.12823 88.0388 4.59895 89.7573C4.17855 91.1223 3.99745 92.5302 3.97007 93.9512C3.91552 96.7837 5.56094 99.1789 8.09112 100.056C9.26129 100.462 10.4443 100.446 11.6329 100.183C12.8546 99.9127 14.0005 99.4254 15.0905 98.7901C15.726 98.4198 16.3976 98.1702 17.1214 98.0921C18.5524 97.9376 19.8117 98.1971 20.6003 99.6542C20.8783 100.168 21.0233 100.713 21.0326 101.29C21.0459 102.114 21.0518 102.942 20.9972 103.763C20.9441 104.56 20.8476 105.358 20.491 106.091C20.0189 107.062 19.4911 107.392 18.454 107.317C18.2385 107.301 18.0198 107.266 17.8126 107.203C17.2702 107.038 16.7354 106.847 16.194 106.678C15.059 106.325 13.9809 105.815 12.7142 106.028C10.4419 106.411 8.81628 107.615 7.8753 109.825C7.33176 111.101 7.13634 112.453 7.15093 113.846C7.17466 114.327 7.18295 114.809 7.22686 115.287C7.26446 115.696 7.32367 116.106 7.40614 116.508C8.53296 122.003 11.2866 126.406 15.5102 129.798C16.958 130.961 18.571 131.798 20.3593 132.235C22.8748 132.849 25.0531 132.257 26.8391 130.25C27.7722 129.201 28.2871 127.923 28.6072 126.548C29.3149 123.505 29.2108 120.438 28.6465 117.408C28.0948 114.445 27.3578 111.52 26.696 108.58C26.0462 105.693 26.125 102.856 27.2004 100.084C27.6992 98.7984 28.4614 97.734 29.5837 96.9845Z" fill="#FFCC33"/>
<path d="M53.6223 33.44C52.9384 35.7238 52.4442 38.0404 52.3898 40.4435C52.348 42.2954 52.7239 44.0312 53.6718 45.6197C54.2038 46.5112 54.6857 47.4364 55.1776 48.3539C56.1506 50.1687 56.6691 52.0942 56.5506 54.2057C56.4426 56.1323 56.2075 58.0337 55.8279 59.9212C55.2914 62.5892 54.7395 65.2579 54.8359 68.0322C54.7539 70.0489 55.0177 72.0424 55.6091 73.9752C56.0265 75.3395 56.7578 76.5293 57.9765 77.2278C59.8813 78.3197 62.3141 77.9762 63.9339 76.45C64.9605 75.4828 65.6677 74.3036 66.2931 73.0283C67.076 71.4319 67.5138 69.7575 67.6532 67.9756C67.7029 67.3398 67.7991 66.6989 67.9547 66.0829C69.0473 61.757 69.2789 57.3627 68.9206 52.9221C68.8155 51.6192 68.626 50.321 68.1565 49.1012C67.5433 47.5081 66.8324 45.9627 65.9842 44.4893C65.5783 43.7844 65.1954 43.0637 64.8265 42.3365C63.5134 39.7479 63.1347 36.9779 63.7015 34.1364C64.1656 31.8101 64.7844 29.5086 65.4795 27.2455C66.1822 24.9572 66.9808 22.7037 67.4349 20.3381C67.9234 17.7928 68.2889 15.2434 68.0294 12.6284C67.8253 10.5718 67.5659 8.53826 66.8805 6.58279C66.4065 5.23066 65.6747 4.09045 64.5623 3.25494C63.3297 2.32903 61.9025 1.80438 60.4394 2.1659C57.3125 2.93855 54.9824 4.81605 53.9203 8.14614C53.2879 10.1292 52.9091 12.1674 52.704 14.2514C52.426 17.0755 52.7346 19.7764 53.9468 22.3431C54.3322 23.1592 54.7379 23.9757 54.8626 24.9044C55.0627 26.3945 55.0614 27.8839 54.7275 29.3441C54.4122 30.723 54.0276 32.0866 53.6223 33.44Z" fill="#FFCC33"/>
<path d="M11.173 64.8353C12.7452 65.6485 14.2375 66.5495 15.545 67.7908C16.529 68.7249 17.3691 69.782 17.9193 71.0352C18.6481 72.6953 18.8417 74.3966 17.9506 76.1146C17.6433 76.7071 17.4228 77.388 17.3231 78.0552C16.8385 81.2967 18.6768 83.6955 21.5565 84.3275C22.7701 84.5938 23.9659 84.4515 25.1281 83.9163C25.7297 83.6392 26.2214 83.2693 26.6113 82.7317C27.131 82.0152 27.5039 81.2151 27.7816 80.3655C28.3147 78.7347 28.1225 77.2095 27.1746 75.7941C26.924 75.4199 26.6674 75.0467 26.4558 74.6481C26.3106 74.3748 26.182 74.0664 26.1433 73.7599C25.947 72.2078 25.9617 70.6505 26.171 69.1011C26.2282 68.6775 26.3238 68.2333 26.5115 67.8599C28.1701 64.5607 29.2445 61.0746 29.5185 57.3451C29.6442 55.6348 29.65 53.9148 29.7101 52.1992C29.654 52.1982 29.5979 52.1973 29.5418 52.1963C29.5418 51.166 29.6106 50.1295 29.527 49.1069C29.3687 47.1702 29.217 45.2236 28.891 43.3136C28.4198 40.5533 27.4473 37.9476 26.3639 35.3904C25.5842 33.5499 24.5261 31.9115 23.2004 30.4656C21.772 28.9076 20.0414 27.8948 18.0381 27.4313C15.4746 26.8382 13.2933 27.9804 12.1807 30.4798C11.9603 30.9748 11.7683 31.4966 11.6516 32.0276C11.2114 34.0306 11.0675 36.0726 11.3439 38.1024C11.7879 41.363 13.0969 44.2278 15.2446 46.6344C16.0628 47.5512 16.9349 48.4174 17.8146 49.2697C19.7518 51.1467 20.965 53.4627 21.5274 56.144C21.8835 57.8413 22.1033 59.5701 22.4015 61.2814C22.5078 61.8917 22.4342 62.4562 22.1946 63.0187C21.8956 63.7208 21.4962 63.9081 20.8506 63.5567C20.607 63.4241 20.3848 63.2214 20.1961 63.0082C19.6357 62.3746 19.2967 61.6021 19.0725 60.7821C18.6819 59.3528 18.2701 57.9264 17.9636 56.4761C17.4954 54.2607 16.8295 52.1505 15.4957 50.3281C15.417 50.2206 15.3623 50.0924 15.3033 49.9702C14.9292 49.1948 14.386 48.5891 13.6823 48.1344C11.9197 46.9951 10.0421 46.8355 8.0977 47.452C6.00842 48.1143 4.14409 49.2044 2.53001 50.7754C1.69295 51.5901 1.08208 52.5451 0.696394 53.6554C-0.0679993 55.856 0.525539 58.1902 2.19859 59.5399C2.88763 60.0958 3.59575 60.6452 4.35583 61.0798C6.60955 62.3684 8.87172 63.6451 11.173 64.8353Z" fill="#FFCC33"/>
<path d="M71.5164 37.1911C72.37 39.4135 72.4993 41.7551 72.2594 44.0931C71.9979 46.6418 71.6254 49.1828 71.1882 51.7053C70.6766 54.6575 70.0796 57.5918 69.773 60.5809C69.5693 62.5661 69.3941 64.5491 69.5485 66.6728C69.5916 67.784 69.6246 69.0211 69.6909 70.2563C69.7839 71.9913 70.1692 73.648 70.9439 75.1949C71.6112 76.5275 72.6717 77.3268 74.0546 77.5548C76.0417 77.8822 77.844 77.3253 79.4354 76.0325C79.8137 75.7252 80.1618 75.3771 80.5331 75.0598C81.5611 74.1811 82.0426 73.0074 82.1415 71.6545C82.2741 69.8423 82.1789 68.0317 81.9121 66.2398C81.6293 64.3402 81.2414 62.4577 80.9679 60.5568C80.7382 58.9613 80.3726 57.4054 79.8153 55.914C78.7605 53.0912 78.5402 50.1748 78.8116 47.197C78.9612 45.556 79.2342 43.9272 79.3715 42.2855C79.5679 39.9373 79.6897 37.5823 79.8457 35.2303C80.0157 32.6687 79.8064 30.1551 79.0835 27.6891C78.6646 26.2601 78.4115 24.7968 78.5908 23.2837C78.6669 22.6422 78.7688 22.017 79.0935 21.4524C79.7578 20.2971 80.3676 19.1033 81.0874 17.9881C82.2682 16.1585 83.2484 14.2285 83.9915 12.1617C84.3803 11.08 84.6204 9.96767 84.5611 8.80444C84.4461 6.54867 83.5798 4.59598 82.3106 2.82636C81.7957 2.10847 81.1608 1.4793 80.3516 1.15945C78.2239 0.318363 76.1753 0.398661 74.3022 1.91445C72.9065 3.04381 71.8959 4.49119 71.2158 6.18799C70.9193 6.92762 70.7172 7.71762 70.7976 8.53182C70.919 9.76062 70.9965 11.0067 71.2594 12.2048C71.7187 14.2976 71.6156 16.332 71.0656 18.3786C70.6514 19.9201 70.2709 21.4728 69.9231 23.0324C69.7551 23.7856 69.6575 24.5626 69.598 25.3347C69.503 26.5677 69.5002 27.8088 69.3972 29.0408C69.2305 31.0351 69.5624 32.9156 70.4031 34.7063C70.7886 35.5273 71.1908 36.3433 71.5164 37.1911Z" fill="#FFCC33"/>
<path d="M64.229 128.312C65.7165 128.217 67.1806 127.965 68.5092 127.218C71.1447 125.738 73.1316 123.59 74.3377 120.687C75.0584 118.952 75.334 117.135 75.1491 115.248C75.0334 114.066 74.6578 112.964 74.0922 111.95C73.3475 110.614 72.0159 110.09 70.6145 110.532C70.158 110.676 69.708 110.857 69.2745 111.066C68.0289 111.666 66.7919 112.286 65.5541 112.904C64.4664 113.447 63.3463 113.563 62.1884 113.204C60.6012 112.711 59.4589 111.678 58.9412 110.011C58.5799 108.847 58.879 107.782 59.7277 106.934C60.2135 106.449 60.7979 106.611 61.0097 107.281C61.1108 107.6 61.1178 107.954 61.1532 108.295C61.1888 108.636 61.1802 108.984 61.237 109.321C61.4659 110.677 62.4295 111.359 63.7069 111.091C64.8295 110.855 65.8761 110.41 66.834 109.758C70.6644 107.154 72.3584 102.305 71.0022 97.6776C70.5867 96.2601 70.0271 94.883 69.4507 93.5265C68.9727 92.4017 68.4663 91.2672 67.8092 90.2548C66.1426 87.6869 62.7752 86.7697 59.9303 88.5864C59.1272 89.0992 58.715 89.8799 58.8728 90.9101C58.9453 91.3839 59.0183 91.8585 59.1149 92.3274C59.2672 93.066 59.4762 93.7936 59.5951 94.5376C59.7805 95.6979 59.6625 96.817 59.0513 97.8466C58.3055 99.1031 57.3602 100.17 56.3008 101.132C54.0655 103.161 52.3355 105.537 51.4963 108.579C50.6943 111.486 50.3306 114.394 51.0205 117.391C52.0251 121.757 54.3503 125.042 58.0941 127.206C59.6018 128.078 61.2106 128.467 62.9259 128.317C63.3603 128.317 63.7961 128.34 64.229 128.312Z" fill="#FFCC33"/>
<path d="M134.612 81.2115C133.938 81.2989 133.309 81.5925 132.765 82.0266C131.614 82.9438 130.58 83.9938 129.744 85.2362C128.708 86.7726 127.411 88.0189 125.939 89.0568C125.409 89.4311 124.78 89.6788 124.167 89.8877C123.529 90.1048 122.853 90.1955 122.198 90.3587C120.6 90.7565 119.16 91.4824 118.016 92.7493C116.985 93.8917 116.437 95.2242 116.539 96.8557C116.739 100.086 119.904 102.192 122.268 100.813C122.473 100.693 122.717 100.612 122.949 100.589C123.443 100.542 123.948 100.485 124.436 100.541C125.109 100.617 125.503 101.106 125.455 101.806C125.411 102.463 125.373 103.16 125.138 103.753C124.696 104.868 124.192 105.974 123.572 106.987C122.572 108.619 121.217 109.908 119.711 111.035C118.864 111.67 118.047 112.366 117.287 113.113C115.799 114.574 115.246 116.487 115.149 118.559C115.052 120.665 115.781 122.502 116.921 124.191C117.428 124.943 118.086 125.491 118.888 125.829C119.431 126.059 120.001 126.215 120.558 126.407C121.234 126.64 121.918 126.697 122.612 126.52C123.916 126.188 125.13 125.687 126.099 124.646C127.674 122.957 128.852 120.987 129.823 118.873C130.441 117.526 130.89 116.112 130.935 114.595C130.967 113.499 130.997 112.4 130.963 111.304C130.909 109.61 130.845 107.914 130.703 106.226C130.507 103.882 130.659 101.559 130.916 99.2349C130.982 98.6333 131.263 98.1604 131.678 97.7609C132.405 97.062 133.181 96.4348 134.093 96.0282C135.256 95.5096 136.382 94.9283 137.421 94.1612C138.46 93.3936 139.281 92.4439 139.748 91.1887C140.29 89.7272 140.655 88.224 140.618 86.7832C140.637 86.5012 140.654 86.364 140.653 86.2268C140.647 85.0333 140.455 83.891 139.701 82.9458C138.352 81.2553 136.555 80.9594 134.612 81.2115Z" fill="#FFCC33"/>
</svg>
